<?xml version="1.0" encoding="UTF-8"?>
<svg version="1.1" xmlns="http://www.w3.org/2000/svg" width="200" height="200">
<path d="M0 0 C1.1977153 -0.00315216 2.3954306 -0.00630432 3.62944031 -0.009552 C4.91808487 -0.00752777 6.20672943 -0.00550354 7.53442383 -0.00341797 C8.87152626 -0.00409173 10.20862858 -0.00506236 11.54573059 -0.00631714 C14.34234793 -0.00778919 17.13893326 -0.00565436 19.93554688 -0.00097656 C23.52705253 0.00473703 27.11848373 0.00142836 30.70998669 -0.00454903 C33.46796739 -0.00815382 36.22593029 -0.00701673 38.98391151 -0.00442123 C40.95437798 -0.00342682 42.92484514 -0.00647127 44.89530945 -0.009552 C46.67769768 -0.00482376 46.67769768 -0.00482376 48.49609375 0 C49.54770187 0.00079559 50.59931 0.00159119 51.68278503 0.00241089 C54.05395508 0.12939453 54.05395508 0.12939453 55.05395508 1.12939453 C55.05395508 5.08939453 55.05395508 9.04939453 55.05395508 13.12939453 C34.26395508 13.45939453 13.47395508 13.78939453 -7.94604492 14.12939453 C-9.60147183 18.2679618 -10.20031898 19.90066009 -10.21166992 24.03564453 C-10.21424805 24.94443359 -10.21682617 25.85322266 -10.21948242 26.78955078 C-10.21174805 27.72669922 -10.20401367 28.66384766 -10.19604492 29.62939453 C-10.2037793 30.56654297 -10.21151367 31.50369141 -10.21948242 32.46923828 C-10.25700235 39.05211038 -10.25700235 39.05211038 -7.94604492 45.12939453 C-4.76827882 46.71827758 -1.33171928 46.30048031 2.15966797 46.31884766 C2.9971608 46.32714096 3.83465363 46.33543427 4.69752502 46.34397888 C6.51889708 46.36139677 8.34029176 46.37655881 10.1616993 46.38975525 C13.03961749 46.41073936 15.91742158 46.43776426 18.79527283 46.46643066 C25.94196942 46.53635269 33.08874684 46.59574031 40.23553467 46.65545654 C46.27350632 46.70629738 52.31141631 46.76109086 58.34930229 46.8212738 C61.19281585 46.84794479 64.03633484 46.86869961 66.87989807 46.88928223 C68.61248043 46.90587739 70.34506018 46.92274853 72.07763672 46.93994141 C72.87506287 46.94412582 73.67248901 46.94831024 74.49407959 46.95262146 C79.94010918 47.01554863 79.94010918 47.01554863 81.05395508 48.12939453 C81.12622009 49.98226955 81.13776728 51.83773331 81.11645508 53.69189453 C81.10743164 54.70380859 81.0984082 55.71572266 81.08911133 56.75830078 C81.07750977 57.54076172 81.0659082 58.32322266 81.05395508 59.12939453 C69.03195169 59.22210678 57.01003347 59.29316599 44.98774529 59.33664322 C39.4051945 59.35751097 33.82288845 59.38581422 28.24047852 59.43115234 C22.85234295 59.47463841 17.46444269 59.49853775 12.07614517 59.5089035 C10.02124452 59.51628986 7.96635663 59.53071372 5.91155624 59.55231476 C3.03149414 59.58138509 0.1524022 59.58534897 -2.7277832 59.58349609 C-3.99985374 59.60506775 -3.99985374 59.60506775 -5.29762268 59.6270752 C-10.66617573 59.58974444 -13.66743611 58.66511247 -17.94604492 55.12939453 C-22.25341237 50.37643735 -22.12116936 45.50993008 -22.18432617 39.32861328 C-22.19239792 38.57401321 -22.20046967 37.81941315 -22.20878601 37.04194641 C-22.22258863 35.44750236 -22.2333278 33.85302923 -22.24121094 32.25854492 C-22.25272943 30.63606037 -22.27317943 29.01361366 -22.30273438 27.39135742 C-22.34559585 25.03684968 -22.36160396 22.68346365 -22.37182617 20.32861328 C-22.38933426 19.61170822 -22.40684235 18.89480316 -22.42488098 18.15617371 C-22.40131214 12.61928086 -20.98162755 9.58899916 -17.94604492 5.12939453 C-15.94604492 3.60595703 -15.94604492 3.60595703 -13.94604492 2.75439453 C-13.28604492 2.45791016 -12.62604492 2.16142578 -11.94604492 1.85595703 C-7.87372017 0.3765578 -4.34442734 0.00327933 0 0 Z " fill="#010101" transform="translate(69.946044921875,98.87060546875)"/>
<path d="M0 0 C5.58672194 -0.07436251 11.17315339 -0.12870254 16.76025391 -0.16479492 C18.65939353 -0.17984691 20.55849859 -0.20029316 22.45751953 -0.22631836 C25.19312081 -0.26285992 27.928261 -0.27976238 30.6640625 -0.29296875 C31.50804596 -0.30845261 32.35202942 -0.32393646 33.22158813 -0.33988953 C38.24571066 -0.3413119 41.63716912 0.23209746 46 3 C52.32876922 9.32876922 52.27216447 16.64814785 52.32226562 25.12890625 C52.31743164 26.98322266 52.31743164 26.98322266 52.3125 28.875 C52.32861328 30.10347656 52.34472656 31.33195312 52.36132812 32.59765625 C52.36949221 47.83184201 52.36949221 47.83184201 47.72485352 53.57739258 C40.48286717 60.25594016 31.1895222 59.28141359 22.0078125 59.23046875 C20.65257816 59.2292751 19.29734299 59.22882418 17.94210815 59.2290802 C15.11629991 59.22752331 12.2906198 59.21928983 9.46484375 59.20581055 C5.83642241 59.18872383 2.20814018 59.18499941 -1.4203167 59.18575573 C-4.21175472 59.18548456 -7.00316212 59.1800136 -9.79459 59.17275429 C-11.78500242 59.16801562 -13.77542128 59.16629103 -15.76583862 59.16459656 C-16.96443512 59.15821671 -18.16303162 59.15183685 -19.39794922 59.14526367 C-20.45827362 59.14145187 -21.51859802 59.13764008 -22.61105347 59.13371277 C-25 59 -25 59 -26 58 C-26.07244053 55.98035801 -26.08377188 53.95832876 -26.0625 51.9375 C-26.05347656 50.83277344 -26.04445313 49.72804687 -26.03515625 48.58984375 C-26.02355469 47.73519531 -26.01195313 46.88054687 -26 46 C-20.08246644 44.69151723 -14.23626685 44.9273686 -8.21484375 45.0078125 C-5.8873741 45.02532214 -3.55989987 45.04223106 -1.23242188 45.05859375 C2.42371323 45.08960089 6.07961883 45.12521619 9.7355957 45.17138672 C13.2729786 45.21369366 16.81008969 45.23715173 20.34765625 45.2578125 C21.9868679 45.28574387 21.9868679 45.28574387 23.65919495 45.3142395 C27.84870862 45.32840897 31.23218756 45.27428572 35.19775391 43.85766602 C37.23539648 42.08908871 37.23539648 42.08908871 37.56762695 39.27270508 C37.54144287 38.19915771 37.51525879 37.12561035 37.48828125 36.01953125 C37.47216797 34.85615234 37.45605469 33.69277344 37.43945312 32.49414062 C37.39755859 31.27919922 37.35566406 30.06425781 37.3125 28.8125 C37.27866211 26.97268555 37.27866211 26.97268555 37.24414062 25.09570312 C37.18513053 22.06258441 37.10284592 19.03189778 37 16 C32.04387118 13.61227445 28.33972896 12.60814869 22.75390625 12.48828125 C22.09792953 12.47033005 21.44195282 12.45237885 20.76609802 12.43388367 C18.69829488 12.38027847 16.63071562 12.34604907 14.5625 12.3125 C13.14905769 12.27928257 11.73564477 12.24478889 10.32226562 12.20898438 C6.88172554 12.12458381 3.44110634 12.05753721 0 12 C0 8.04 0 4.08 0 0 Z " fill="#010001" transform="translate(101,77)"/>
<path d="M0 0 C0 15.18 0 30.36 0 46 C-6.6 46 -13.2 46 -20 46 C-20 30.82 -20 15.64 -20 0 C-14.03715206 -2.98142397 -6.65640235 -0.36980013 0 0 Z " fill="#030101" transform="translate(95,44)"/>
<path d="M0 0 C1 1 1 1 1.12025452 2.86659241 C1.1169236 4.08903908 1.1169236 4.08903908 1.11352539 5.33618164 C1.11344986 6.2570607 1.11337433 7.17793976 1.11329651 8.12672424 C1.10813522 9.12775681 1.10297394 10.12878937 1.09765625 11.16015625 C1.0962413 12.17975937 1.09482635 13.19936249 1.09336853 14.24986267 C1.08775097 17.52077107 1.0751955 20.79161213 1.0625 24.0625 C1.05748726 26.27408756 1.05292396 28.48567618 1.04882812 30.69726562 C1.03777584 36.13153357 1.02102063 41.56576197 1 47 C-1.64 47 -4.28 47 -7 47 C-7 31.82 -7 16.64 -7 1 C-4.51588385 -0.24205807 -2.74800896 -0.14092354 0 0 Z " fill="#E59237" transform="translate(82,43)"/>
<path d="M0 0 C0.66 0.33 1.32 0.66 2 1 C1.67 16.18 1.34 31.36 1 47 C0.01 47 -0.98 47 -2 47 C-2 31.82 -2 16.64 -2 1 C-1.34 0.67 -0.68 0.34 0 0 Z " fill="#110D02" transform="translate(77,43)"/>
<path d="M0 0 C0 4.29 0 8.58 0 13 C-2.33294775 13.04241723 -4.66702567 13.04092937 -7 13 C-8 12 -8 12 -8.09765625 9.27734375 C-8.08605469 8.17519531 -8.07445313 7.07304687 -8.0625 5.9375 C-8.05347656 4.83277344 -8.04445313 3.72804688 -8.03515625 2.58984375 C-8.02355469 1.73519531 -8.01195313 0.88054687 -8 0 C-5 -1 -5 -1 0 0 Z " fill="#BE7334" transform="translate(83,123)"/>
<path d="M0 0 C0.99 0.33 1.98 0.66 3 1 C3 16.18 3 31.36 3 47 C2.67 47 2.34 47 2 47 C1.97494385 45.71834961 1.9498877 44.43669922 1.92407227 43.11621094 C1.82988405 38.3600875 1.7296911 33.60410621 1.62768555 28.84814453 C1.58437991 26.78991013 1.54270171 24.73164082 1.50268555 22.67333984 C1.44487725 19.71441121 1.38121304 16.7556576 1.31640625 13.796875 C1.29969376 12.87694763 1.28298126 11.95702026 1.26576233 11.00921631 C1.24581711 10.1486261 1.22587189 9.28803589 1.20532227 8.40136719 C1.18977798 7.64635925 1.1742337 6.89135132 1.15821838 6.11346436 C0.99814367 3.97520329 0.58183632 2.06010916 0 0 Z " fill="#782C23" transform="translate(80,43)"/>
<path d="M0 0 C0.99 0 1.98 0 3 0 C3 4.29 3 8.58 3 13 C2.01 12.67 1.02 12.34 0 12 C0 8.04 0 4.08 0 0 Z " fill="#1B1708" transform="translate(75,123)"/>
</svg>
